<?xml version="1.0" encoding="UTF-8" standalone="no"?>
<svg
   xmlns:dc="http://purl.org/dc/elements/1.1/"
   xmlns:cc="http://creativecommons.org/ns#"
   xmlns:rdf="http://www.w3.org/1999/02/22-rdf-syntax-ns#"
   xmlns:svg="http://www.w3.org/2000/svg"
   xmlns="http://www.w3.org/2000/svg"
   xmlns:xlink="http://www.w3.org/1999/xlink"
   xmlns:sodipodi="http://sodipodi.sourceforge.net/DTD/sodipodi-0.dtd"
   xmlns:inkscape="http://www.inkscape.org/namespaces/inkscape"
   width="64"
   height="64"
   viewBox="0 0 16.933333 16.933334"
   version="1.1"
   id="svg8"
   inkscape:version="1.0.2 (e86c870879, 2021-01-15, custom)"
   sodipodi:docname="icon.svg"
   inkscape:export-filename="D:\Downloads\icon_16.png"
   inkscape:export-xdpi="24"
   inkscape:export-ydpi="24">
  <defs
     id="defs2">
    <linearGradient
       inkscape:collect="always"
       id="linearGradient841">
      <stop
         style="stop-color:#c000a2;stop-opacity:1"
         offset="0"
         id="stop837" />
      <stop
         style="stop-color:#8800a0;stop-opacity:1"
         offset="1"
         id="stop839" />
    </linearGradient>
    <rect
       x="-75.382189"
       y="42.545251"
       width="194.45178"
       height="63.675107"
       id="rect846" />
    <rect
       x="-71.171963"
       y="-6.0571883"
       width="100.65028"
       height="27.055441"
       id="rect840" />
    <rect
       x="0.01323625"
       y="0.01323625"
       width="16.906861"
       height="16.906861"
       id="rect848" />
    <linearGradient
       inkscape:collect="always"
       xlink:href="#linearGradient841"
       id="linearGradient843"
       x1="8.4789"
       y1="1.5235524"
       x2="8.4789"
       y2="15.864817"
       gradientUnits="userSpaceOnUse" />
  </defs>
  <sodipodi:namedview
     id="base"
     pagecolor="#ffffff"
     bordercolor="#666666"
     borderopacity="1.0"
     inkscape:pageopacity="0.0"
     inkscape:pageshadow="2"
     inkscape:zoom="3.9942287"
     inkscape:cx="105.45431"
     inkscape:cy="54.906413"
     inkscape:document-units="mm"
     inkscape:current-layer="layer1"
     inkscape:document-rotation="0"
     showgrid="false"
     units="px"
     inkscape:window-width="1920"
     inkscape:window-height="1017"
     inkscape:window-x="-8"
     inkscape:window-y="-8"
     inkscape:window-maximized="1" />
  <metadata
     id="metadata5">
    <rdf:RDF>
      <cc:Work
         rdf:about="">
        <dc:format>image/svg+xml</dc:format>
        <dc:type
           rdf:resource="http://purl.org/dc/dcmitype/StillImage" />
        <dc:title />
      </cc:Work>
    </rdf:RDF>
  </metadata>
  <g
     inkscape:label="Layer 1"
     inkscape:groupmode="layer"
     id="layer1">
    <rect
       style="fill:url(#linearGradient843);fill-opacity:1;stroke:none;stroke-width:0.126197;stroke-linecap:round;stroke-linejoin:round;stroke-miterlimit:4;stroke-dasharray:none;stroke-opacity:1"
       id="rect833"
       width="16.933332"
       height="16.933332"
       x="-1.7347235e-18"
       y="-1.7347235e-18"
       ry="4.2310505" />
    <text
       xml:space="preserve"
       id="text846"
       style="fill:black;fill-opacity:1;stroke:none;font-family:sans-serif;font-style:normal;font-weight:normal;font-size:10.58333333px;line-height:1.25;letter-spacing:0px;word-spacing:0px;white-space:pre;shape-inside:url(#rect848);" />
    <path
       id="path861"
       style="font-style:normal;font-variant:normal;font-weight:normal;font-stretch:normal;font-size:10.5833px;line-height:1.25;font-family:Atlantika;-inkscape-font-specification:Atlantika;letter-spacing:0px;word-spacing:0px;white-space:pre;fill:#ffcc00;fill-opacity:1;stroke:none;stroke-width:0.590525"
       d="m 3.2776249,2.468919 c -0.5249748,0 -1.1685441,0.5502916 -1.1685441,1.2440091 0,0.8624589 0.9810432,1.7494809 0.9810432,2.3307032 0,0.368732 -0.2564411,0.7314284 -0.5439276,0.7314284 -0.6687183,0 -0.5744633,-1.10014 -0.2432292,-1.4251248 0.068747,-0.062497 0.037437,-0.3120742 -0.056308,-0.2745759 -0.093746,0.043746 -0.4502803,0.2498553 -0.5752744,0.7685807 -0.124994,0.5187253 0.1187475,1.1308116 0.774966,1.1308116 0.4499788,0 1.1563539,-0.4557082 1.1563539,-1.1244262 0,-0.8499596 -1.0750838,-1.3999424 -1.0750838,-2.3248979 0,-0.5062267 0.4377908,-0.9003539 0.7627754,-0.9003539 0.568723,0 0.3500185,1.0191042 -0.024962,1.3815872 C 3.090442,4.1754024 3.6401012,4.1751346 3.86509,3.700157 4.0900794,3.2251798 3.9963409,2.468919 3.2776249,2.468919 Z m 6.686767,1.0414149 c -0.03584,-0.00732 -0.07794,-0.00705 -0.124807,0.00233 C 9.6520936,3.5564019 9.4585434,3.7253021 9.4210448,3.8940438 9.3897937,4.0627864 9.4959398,4.1689663 9.6834303,4.1314678 9.8709219,4.0939696 10.065052,3.9188221 10.102551,3.75008 10.125989,3.6235231 10.071907,3.5323056 9.9643919,3.5103339 Z M 6.1087182,3.7814271 c -0.4249795,0 -0.5871728,1.0123627 -0.1996916,1.2248525 C 5.8527789,5.1500227 5.7838864,5.293576 5.7151398,5.4248195 5.5831402,5.6994528 5.0359529,6.712366 4.5965185,6.712366 c -0.231239,0 -0.3253885,-0.3123285 -0.3128888,-0.6873107 0.037498,0.012502 0.07539,0.024962 0.1253877,0.024962 0.3874818,0 0.6684119,-0.3562867 0.7871564,-0.6437732 0.1874912,-0.443729 0.1065954,-0.9938145 -0.3308843,-0.9938145 -0.3749821,0 -0.8127457,0.4251384 -0.9752382,1.1563538 -0.1749915,0.7687136 0.11245,1.4251246 0.6124264,1.4251246 0.6187205,0 1.1750148,-1.2248489 1.3125081,-1.5185848 l 0.2060771,-0.431311 c 0.012502,0 0.031174,0.00581 0.049923,0.00581 0.1062449,0 0.1942186,-0.031002 0.2629657,-0.068499 -0.2187398,0.7312151 -0.4500554,1.9249345 0.049923,1.9249345 0.2499965,0 0.6360206,-0.6661599 0.8655238,-1.1104946 0.00479,0.5902598 0.1562357,1.1104946 0.5090976,1.1104946 0.293736,0 0.575112,-0.2875029 0.7813515,-0.6687347 C 8.7335892,6.200025 8.8960872,6.0874964 9.0210813,5.968752 9.0756033,5.916501 9.1216736,5.8556229 9.163884,5.7928608 9.089881,6.3726395 9.070298,6.9062577 9.3647365,6.9062577 c 0.2313196,0 0.5784744,-0.5725412 0.8115385,-1.0106486 -0.03859,0.6184185 0.230198,1.098304 0.657124,1.0983037 0.442562,0 0.850643,-0.624065 1.098885,-1.0884353 -0.035,0.6135157 0.232528,1.0884353 0.657124,1.0884353 0.618721,0 1.175014,-1.2248488 1.312508,-1.5185848 l 0.137578,-0.2815421 c 0.118744,0.2749867 0.269006,0.5625985 0.306504,0.8875828 -0.281237,0.012501 -0.687891,0.074671 -0.687891,0.4121543 0,0.2499882 0.26888,0.4376961 0.487619,0.4376961 0.406231,0 0.67512,-0.5499021 0.67512,-0.8248891 V 6.093559 c 0.05625,-0.043746 0.10602,-0.08106 0.149768,-0.1248073 0.149994,-0.1437435 0.249949,-0.3496807 0.318695,-0.493424 0.02499,-0.062497 -0.06847,-0.1126916 -0.09346,-0.062694 -0.07499,0.1499928 -0.199874,0.3747784 -0.368617,0.5247711 l -0.02496,0.019156 c -0.08125,-0.3999807 -0.462744,-0.7440839 -0.600236,-1.1128163 0.149993,-0.3624827 0.250256,-0.7308482 0.01277,-0.7308482 -0.206241,0 -0.331464,0.2872215 -0.331464,0.4684626 0,0.168742 0.03779,0.3186058 0.09403,0.4748481 -0.05607,0.1183669 -0.106324,0.2428591 -0.17473,0.3674557 -2.18e-4,3.974e-4 -3.62e-4,7.638e-4 -5.81e-4,0.00116 -0.132005,0.2746426 -0.679189,1.2875465 -1.11862,1.2875465 -0.231239,0 -0.324809,-0.3123285 -0.31231,-0.6873108 0.0375,0.012502 0.0748,0.024962 0.124808,0.024962 0.387482,0 0.668412,-0.3562867 0.787156,-0.6437731 0.187492,-0.4437286 0.106594,-0.9938141 -0.330884,-0.9938141 -0.369645,0 -0.799282,0.4145591 -0.967111,1.1267482 -0.185603,0.3599588 -0.65867,1.1731884 -1.057668,1.1731884 -0.331235,0 -0.381168,-0.6684931 -0.237425,-1.2184671 0.174992,-0.6437196 0.400011,-0.9125445 0.562504,-0.9125445 0.143743,0 0.02487,0.5376881 -0.112618,0.7314286 -0.0625,0.087496 0.08737,0.1933062 0.181117,0.1933062 0.09374,0 0.181447,-0.093334 0.250194,-0.2745759 0.118744,-0.3312345 0.06248,-0.8190839 -0.375002,-0.8190839 -0.367537,0 -0.79379,0.4104047 -0.963628,1.1151383 -0.165938,0.3190793 -0.5210111,0.960145 -0.617651,0.9601453 -0.1249942,0 -0.09398,-0.3441817 -0.037733,-0.7691611 C 9.6334463,5.3373202 9.7275349,4.8941481 9.8337799,4.5691639 9.8525289,4.5066669 9.4022347,4.499996 9.3647365,4.6562388 9.3107631,4.8770393 9.2562989,5.1745519 9.2097431,5.4782253 9.1362628,5.6238317 9.0247865,5.8061386 8.8771174,5.9373999 8.8021207,6.0061471 8.7148631,6.0499795 8.6211175,6.0749783 8.7023636,5.8874871 8.7711209,5.6875033 8.8086184,5.4875132 8.9461122,4.8312942 8.7776427,4.4188148 8.5276571,4.4188148 c -0.4249802,0 -0.5749695,1.456295 -0.2937326,1.7687802 -0.1124948,0.3187353 -0.2504527,0.574694 -0.3691972,0.574694 -0.4062305,0 -0.2062752,-1.4994082 0.024962,-2.1931251 0.01875,-0.062497 -0.418465,-0.062917 -0.4684626,0.087075 -0.088058,0.2488588 -0.1407675,0.556341 -0.1613785,0.863202 -0.1637541,0.3212901 -0.5302853,0.968272 -0.6263583,0.9682723 -0.293736,0 0.037532,-1.2248322 0.268771,-1.9185491 0.024996,-0.062497 -0.4122152,-0.062917 -0.4684627,0.087075 0,0 -0.1312402,0.262732 -0.2937324,0.2252337 -0.012502,-0.00625 -0.031043,-0.012467 -0.043538,-0.024962 0.1999908,-0.487477 0.3684216,-1.0750838 0.01219,-1.0750837 z m 0.056308,0.17473 c 0.087495,0 0.00602,0.3504312 -0.1439636,0.7691611 -0.068747,-0.2687372 0.05022,-0.7691611 0.1439636,-0.7691611 z m 8.0683548,0.4255058 c 0.05,0 0.01842,0.1123176 -0.06909,0.3123084 -0.0063,-0.037498 -0.01219,-0.075119 -0.01219,-0.1126169 0,-0.099995 0.02502,-0.1996915 0.08127,-0.1996915 z M 8.5021151,4.5749691 c 0.081246,0 -0.012216,0.4314159 -0.09346,0.9438911 C 8.3836571,5.6813527 8.3400951,5.8686391 8.2838475,6.0436313 8.0963565,5.768644 8.3208735,4.5749691 8.5021151,4.5749691 Z m -3.5805172,0.00638 c 0.1437426,0 0.087226,0.3626352 -0.012771,0.6751201 -0.081246,0.2437429 -0.349915,0.6371581 -0.5311562,0.5996605 l -0.08127,-0.031347 C 4.3089022,5.7122887 4.3340957,5.6063938 4.3590945,5.4938989 4.534086,4.8501793 4.7591054,4.5813544 4.9215979,4.5813544 Z m 8.0869311,0 c 0.143743,0 0.08723,0.3626352 -0.01277,0.6751201 -0.08125,0.2437381 -0.349914,0.6371532 -0.531157,0.5996557 l -0.08127,-0.031347 c 0.0125,-0.1124946 0.03769,-0.2183895 0.06269,-0.3308844 0.174992,-0.6437196 0.400012,-0.9125444 0.562504,-0.9125444 z m 1.34966,1.6875102 c -0.0063,0.2812372 -0.131143,0.5183856 -0.262387,0.5183856 -0.124993,0 -0.156153,-0.1247192 -0.156153,-0.2809613 0,-0.1312444 0.20605,-0.2124255 0.41854,-0.2374243 z" />
    <path
       id="path852"
       style="font-style:normal;font-variant:normal;font-weight:600;font-stretch:normal;font-size:10.5833px;line-height:1.25;font-family:'Bernina Sans';-inkscape-font-specification:'Bernina Sans Semi-Bold';letter-spacing:0px;word-spacing:0px;white-space:pre;fill:#ffffff;fill-opacity:1;stroke:none;stroke-width:0.746305"
       d="M 4.070858,8 1.9226688,13.939689 H 2.8864343 L 3.3918298,12.454508 H 5.658358 l 0.4976442,1.485181 H 7.2934004 L 5.1767338,8 Z m 4.028178,0 v 5.939689 H 9.1573693 V 11.91759 h 0.5374348 c 0.5528889,0 1.1370059,-0.01561 1.6582989,-0.315743 0.537089,-0.315935 0.884701,-0.900646 0.884701,-1.6825839 0,-0.7029561 -0.284344,-1.2715652 -0.805636,-1.5875005 C 10.879281,8.000031 10.168415,8 9.7103074,8 Z m 5.197101,0 v 5.939689 H 14.35447 V 8 Z M 9.1573693,8.7901326 h 0.615982 c 0.2843447,0 0.6639237,-2.021e-4 0.9482657,0.2051555 0.268544,0.189561 0.410311,0.537252 0.410311,0.963766 0,0.3949169 -0.12597,0.7578909 -0.410311,0.9632479 -0.284342,0.205358 -0.663921,0.205672 -0.9482657,0.205672 H 9.1573693 Z M 4.544731,9.1058758 5.3979088,11.664892 H 3.6682987 Z" />
  </g>
</svg>
