<svg width="64" height="64" version="1.1" viewBox="0 0 16.9 16.9" xmlns="http://www.w3.org/2000/svg" xmlns:xlink="http://www.w3.org/1999/xlink">
 <defs>
  <linearGradient id="linearGradient8430" x1="8.48" x2="8.48" y1="1.52" y2="15.9" gradientUnits="userSpaceOnUse">
   <stop stop-color="#389908" offset="0"/>
   <stop stop-color="#024408" offset="1"/>
  </linearGradient>
 </defs>
 <g>
  <rect x="-1.73e-18" y="-1.73e-18" width="16.9" height="16.9" ry="4.23" fill="url(#linearGradient8430)"/>
  <text fill="black" font-family="sans-serif" font-size="10.6px" letter-spacing="0px" word-spacing="0px" style="line-height:1.25;shape-inside:url(#rect848);white-space:pre" xml:space="preserve"/>
  <path d="m3.28 2.47c-.525 0-1.17.55-1.17 1.24 0 .862.981 1.75.981 2.33 0 .369-.256.731-.544.731-.669 0-.574-1.1-.243-1.43.0687-.0625.0374-.312-.0563-.275-.0937.0437-.45.25-.575.769-.125.519.119 1.13.775 1.13.45 0 1.16-.456 1.16-1.12 0-.85-1.08-1.4-1.08-2.32 0-.506.438-.9.763-.9.569 0 .35 1.02-.025 1.38-.175.169.375.168.6-.307.225-.475.131-1.23-.587-1.23zm6.69 1.04c-.0358-.00732-.0779-.00705-.125.00233-.187.0437-.381.213-.419.381-.0313.169.0749.275.262.237.187-.0375.382-.213.419-.381.0234-.127-.0306-.218-.138-.24zm-3.86.271c-.425 0-.587 1.01-.2 1.22-.0562.144-.125.287-.194.419-.132.275-.679 1.29-1.12 1.29-.231 0-.325-.312-.313-.687.0375.0125.0754.025.125.025.387 0 .668-.356.787-.644.187-.444.107-.994-.331-.994-.375 0-.813.425-.975 1.16-.175.769.112 1.43.612 1.43.619 0 1.18-1.22 1.31-1.52l.206-.431c.0125 0 .0312.00581.0499.00581.106 0 .194-.031.263-.0685-.219.731-.45 1.92.0499 1.92.25 0 .636-.666.866-1.11.00479.59.156 1.11.509 1.11.294 0 .575-.288.781-.669.194-.0375.356-.15.481-.269.0545-.0523.101-.113.143-.176-.074.58-.0936 1.11.201 1.11.231 0 .578-.573.812-1.01-.0386.618.23 1.1.657 1.1.443 0 .851-.624 1.1-1.09-.035.614.233 1.09.657 1.09.619 0 1.18-1.22 1.31-1.52l.138-.282c.119.275.269.563.307.888-.281.0125-.688.0747-.688.412 0 .25.269.438.488.438.406 0 .675-.55.675-.825v-.0128c.0562-.0437.106-.0811.15-.125.15-.144.25-.35.319-.493.025-.0625-.0685-.113-.0935-.0627-.075.15-.2.375-.369.525l-.025.0192c-.0812-.4-.463-.744-.6-1.11.15-.362.25-.731.0128-.731-.206 0-.331.287-.331.468 0 .169.0378.319.094.475-.0561.118-.106.243-.175.367-.000218.000397-.000362.000764-.000581.00116-.132.275-.679 1.29-1.12 1.29-.231 0-.325-.312-.312-.687.0375.0125.0748.025.125.025.387 0 .668-.356.787-.644.187-.444.107-.994-.331-.994-.37 0-.799.415-.967 1.13-.186.36-.659 1.17-1.06 1.17-.331 0-.381-.668-.237-1.22.175-.644.4-.913.563-.913.144 0 .0249.538-.113.731-.0625.0875.0874.193.181.193.0937 0 .181-.0933.25-.275.119-.331.0625-.819-.375-.819-.368 0-.794.41-.964 1.12-.166.319-.521.96-.618.96-.125 0-.094-.344-.0377-.769.0563-.381.15-.824.257-1.15.0187-.0625-.432-.0692-.469.0871-.054.221-.108.518-.155.822-.0735.146-.185.328-.333.459-.075.0687-.162.113-.256.138.0812-.187.15-.387.188-.587.137-.656-.031-1.07-.281-1.07-.425 0-.575 1.46-.294 1.77-.112.319-.25.575-.369.575-.406 0-.206-1.5.025-2.19.0188-.0625-.418-.0629-.468.0871-.0881.249-.141.556-.161.863-.164.321-.53.968-.626.968-.294 0 .0375-1.22.269-1.92.025-.0625-.412-.0629-.468.0871 0 0-.131.263-.294.225-.0125-.00625-.031-.0125-.0435-.025.2-.487.368-1.08.0122-1.08zm.0563.175c.0875 0 .00602.35-.144.769-.0687-.269.0502-.769.144-.769zm8.07.426c.05 0 .0184.112-.0691.312-.0063-.0375-.0122-.0751-.0122-.113 0-.1.025-.2.0813-.2zm-5.73.193c.0812 0-.0122.431-.0935.944-.025.162-.0686.35-.125.525-.187-.275.037-1.47.218-1.47zm-3.58.00638c.144 0 .0872.363-.0128.675-.0812.244-.35.637-.531.6l-.0813-.0313c.0125-.112.0377-.218.0627-.331.175-.644.4-.913.563-.913zm8.09 0c.144 0 .0872.363-.0128.675-.0812.244-.35.637-.531.6l-.0813-.0313c.0125-.112.0377-.218.0627-.331.175-.644.4-.913.563-.913zm1.35 1.69c-.0063.281-.131.518-.262.518-.125 0-.156-.125-.156-.281 0-.131.206-.212.419-.237z" fill="#ffde00" style="white-space:pre"/>
  <path d="m4.07 8-2.15 5.94h.964l.505-1.49h2.27l.498 1.49h1.14l-2.12-5.94zm4.03 0v5.94h1.06v-2.02h.537c.553 0 1.14-.0156 1.66-.316.537-.316.885-.901.885-1.68 0-.703-.284-1.27-.806-1.59-.553-.332-1.26-.332-1.72-.332zm5.2 0v5.94h1.06v-5.94zm-4.14.79h.616c.284 0 .664-.000202.948.205.269.19.41.537.41.964 0 .395-.126.758-.41.963-.284.205-.664.206-.948.206h-.616zm-4.61.316.853 2.56h-1.73z" fill="#fff" style="white-space:pre"/>
 </g>
</svg>
